<mxfile host="app.diagrams.net" modified="2023-05-08T02:45:13.244Z" agent="Mozilla/5.0 (Windows NT 10.0; Win64; x64; rv:109.0) Gecko/20100101 Firefox/112.0" version="21.2.9" etag="DXn38K3ULXu86cZj7Na0" type="github">
  <diagram name="Page-1" id="f8JtdR0nfq7T2uKDSc63">
    <mxGraphModel>
      <root>
        <mxCell id="0" />
        <mxCell id="1" parent="0" />
      </root>
    </mxGraphModel>
  </diagram>
</mxfile>
